<svg width="40" height="40" viewBox="0 0 40 40" fill="none" xmlns="http://www.w3.org/2000/svg">
<g opacity="0.6">
<path fill-rule="evenodd" clip-rule="evenodd" d="M30 3H10C6.13401 3 3 6.13401 3 10V30C3 33.866 6.13401 37 10 37H30C33.866 37 37 33.866 37 30V10C37 6.13401 33.866 3 30 3ZM10 0C4.47715 0 0 4.47715 0 10V30C0 35.5228 4.47715 40 10 40H30C35.5228 40 40 35.5228 40 30V10C40 4.47715 35.5228 0 30 0H10Z" fill="#5C5B65"/>
<path fill-rule="evenodd" clip-rule="evenodd" d="M20 27C23.866 27 27 23.866 27 20C27 16.134 23.866 13 20 13C16.134 13 13 16.134 13 20C13 23.866 16.134 27 20 27ZM20 30C25.5228 30 30 25.5228 30 20C30 14.4772 25.5228 10 20 10C14.4772 10 10 14.4772 10 20C10 25.5228 14.4772 30 20 30Z" fill="#5C5B65"/>
<path d="M33 9C33 10.1046 32.1046 11 31 11C29.8954 11 29 10.1046 29 9C29 7.89543 29.8954 7 31 7C32.1046 7 33 7.89543 33 9Z" fill="#5C5B65"/>
</g>
</svg>
