<svg width="40" height="40" viewBox="0 0 40 40" fill="none" xmlns="http://www.w3.org/2000/svg">
<g opacity="0.6">
<path fill-rule="evenodd" clip-rule="evenodd" d="M30 3H10C6.13401 3 3 6.13401 3 10V30C3 33.866 6.13401 37 10 37H30C33.866 37 37 33.866 37 30V10C37 6.13401 33.866 3 30 3ZM10 0C4.47715 0 0 4.47715 0 10V30C0 35.5228 4.47715 40 10 40H30C35.5228 40 40 35.5228 40 30V10C40 4.47715 35.5228 0 30 0H10Z" fill="#5C5B65"/>
<path d="M17.3922 33C17.1405 33 16.9346 32.918 16.7745 32.7541C16.6144 32.5901 16.5343 32.3793 16.5343 32.1216V18.8757H13.8578C13.6062 18.8757 13.4003 18.7937 13.2402 18.6297C13.0801 18.4658 13 18.255 13 17.9973V15.6081C13 15.3504 13.0801 15.1396 13.2402 14.9757C13.4003 14.8117 13.6062 14.7297 13.8578 14.7297H16.5343V13.4649C16.5343 11.9658 16.8088 10.736 17.3578 9.77568C17.9069 8.81532 18.7075 8.11261 19.7598 7.66757C20.8121 7.22252 22.1046 7 23.6373 7H26.1422C26.3938 7 26.5997 7.08198 26.7598 7.24594C26.9199 7.40991 27 7.62072 27 7.87838V10.2676C27 10.5252 26.9199 10.736 26.7598 10.9C26.5997 11.064 26.3938 11.1459 26.1422 11.1459H23.8431C22.9967 11.1459 22.402 11.3568 22.0588 11.7784C21.7386 12.2 21.5784 12.8207 21.5784 13.6405V14.7297H25.799C26.0507 14.7297 26.2565 14.8117 26.4167 14.9757C26.5768 15.1396 26.6569 15.3504 26.6569 15.6081V17.9973C26.6569 18.255 26.5768 18.4658 26.4167 18.6297C26.2565 18.7937 26.0507 18.8757 25.799 18.8757H21.5784V32.1216C21.5784 32.3793 21.4984 32.5901 21.3382 32.7541C21.1781 32.918 20.9837 33 20.7549 33H17.3922Z" fill="#5C5B65"/>
</g>
</svg>
